<svg xmlns="http://www.w3.org/2000/svg" xml:space="preserve" width="0.416661in" height="0.34722in" version="1.1" style="shape-rendering:geometricPrecision; text-rendering:geometricPrecision; image-rendering:optimizeQuality; fill-rule:evenodd; clip-rule:evenodd"
viewBox="0 0 416.66 347.22">
 <g id="_1905079872">
   <path class="fil0" d="M395.38 10.3c11.75,0 21.28,9.53 21.28,21.28 0,11.75 -9.53,21.28 -21.28,21.28l-374.1 0c-11.75,0 -21.28,-9.53 -21.28,-21.28 0,-11.75 9.53,-21.28 21.28,-21.28l374.1 0z"/>
   <path class="fil0" d="M395.38 166.37c11.75,0 21.28,9.53 21.28,21.28 0,11.75 -9.53,21.28 -21.28,21.28l-374.1 0c-11.75,0 -21.28,-9.53 -21.28,-21.28 0,-11.75 9.53,-21.28 21.28,-21.28l374.1 0z"/>
   <path class="fil0" d="M395.38 308.25c11.75,0 21.28,9.53 21.28,21.28 0,11.75 -9.53,21.28 -21.28,21.28l-374.1 0c-11.75,0 -21.28,-9.53 -21.28,-21.28 0,-11.75 9.53,-21.28 21.28,-21.28l374.1 0z"/>
  </g>
</svg>
