<svg version="1.1" id="Layer_1" xmlns="http://www.w3.org/2000/svg" x="0px" y="0px"
	 width="39.267px" height="39.395px" viewBox="0 0 39.267 39.395" enable-background="new 0 0 39.267 39.395" xml:space="preserve">
<path fill="#99CC2B" d="M39.267,1.055c-4.803,5.669-9.183,11.356-13.138,17.087c-3.965,5.722-7.351,11.25-10.159,16.594
	c-0.23,0.448-0.515,1.02-0.836,1.724c-0.956,1.959-2.625,2.936-5.006,2.936c-1.099,0-1.842-0.098-2.231-0.3
	c-0.389-0.193-0.806-0.674-1.24-1.45c-1.018-1.816-4.619-10.45-5.404-12.78c-0.781-2.319-1.194-3.955-1.246-4.904
	c-0.028-0.51,0.034-0.917,0.188-1.204c0.156-0.292,0.489-0.63,0.999-1.002c0.647-0.472,1.378-0.852,2.195-1.152
	c0.81-0.297,1.514-0.448,2.094-0.448c0.483,0,1.123,0.919,1.911,2.777c0.08,0.19,2.851,6.881,2.886,6.971
	c0.026,0.068-2.632-6.368-2.562-6.197c0.739,1.78,4.03,9.238,4.452,9.238c0.361,0,1.691-2.021,3.981-6.064
	c2.291-4.043,4.639-7.84,7.036-11.391c1.665-2.479,3.168-4.544,4.508-6.223c1.341-1.67,2.321-2.708,2.932-3.103
	C31.52,1.635,32.7,1.178,34.146,0.8c1.438-0.377,3.067-0.641,4.86-0.8L39.267,1.055z"/>
</svg>
