<svg xmlns="http://www.w3.org/2000/svg" xml:space="preserve" width="0.305551in" height="0.305551in" version="1.1" style="shape-rendering:geometricPrecision; text-rendering:geometricPrecision; image-rendering:optimizeQuality; fill-rule:evenodd; clip-rule:evenodd"
viewBox="0 0 305.55 305.55">
 <g id="_876400848">
   <path class="fil0" d="M299.35 269.4c8.27,8.27 8.27,21.68 0,29.95 -8.27,8.27 -21.68,8.27 -29.95,0l-263.2 -263.2c-8.27,-8.27 -8.27,-21.68 0,-29.95 8.27,-8.27 21.68,-8.27 29.95,0l263.2 263.2z"/>
  <path class="fil0" d="M6.2 269.4c-8.27,8.27 -8.27,21.68 0,29.95 8.27,8.27 21.68,8.27 29.95,0l263.2 -263.2c8.27,-8.27 8.27,-21.68 0,-29.95 -8.27,-8.27 -21.68,-8.27 -29.95,0l-263.2 263.2z"/>
  </g>
</svg>
