<?xml version="1.0" encoding="UTF-8"?>
<!DOCTYPE svg PUBLIC "-//W3C//DTD SVG 1.1//EN" "http://www.w3.org/Graphics/SVG/1.1/DTD/svg11.dtd">
<!-- Creator: CorelDRAW 2019 (64-Bit) -->
<svg xmlns="http://www.w3.org/2000/svg" xml:space="preserve" width="5.41666in" height="1.27777in" version="1.1" style="shape-rendering:geometricPrecision; text-rendering:geometricPrecision; image-rendering:optimizeQuality; fill-rule:evenodd; clip-rule:evenodd"
viewBox="0 0 5416.66 1277.77"
 xmlns:xlink="http://www.w3.org/1999/xlink"
 xmlns:xodm="http://www.corel.com/coreldraw/odm/2003">
 <defs>
  <style type="text/css">
   <![CDATA[
    .fil5 {fill:#7AABBE;fill-rule:nonzero}
    .fil3 {fill:#7ABE93;fill-rule:nonzero}
    .fil0 {fill:#A8DFDF;fill-rule:nonzero}
    .fil4 {fill:#BE7C7A;fill-rule:nonzero}
    .fil1 {fill:#F97938;fill-rule:nonzero}
    .fil2 {fill:#F9AC38;fill-rule:nonzero}
   ]]>
  </style>
 </defs>
 <g id="Layer_x0020_1">
  <metadata id="CorelCorpID_0Corel-Layer"/>
  <g id="_1089690976">
   <path class="fil0" d="M5384.04 141.76c18.02,0 32.63,14.61 32.63,32.62 0,18.02 -14.61,32.63 -32.63,32.63l-265.52 0c-4.19,0 -1.67,-0.12 -3.52,-0.07l-985.75 25.89c-31.08,0.81 -59.56,-11.06 -80.48,-30.91 -20.89,-19.81 -34.21,-47.67 -35.03,-78.87 -0.01,-0.95 -0.04,-1.92 -0.03,-2.87l-0.13 0c0,-13.72 -5.56,-26.15 -14.55,-35.14 -8.99,-8.99 -21.41,-14.55 -35.13,-14.55l-708.91 0c-27.03,0 -51.5,10.95 -69.21,28.66 -17.7,17.7 -28.66,42.18 -28.66,69.2l0 164.62c0,45.04 -18.26,85.82 -47.78,115.34 -29.52,29.52 -70.3,47.78 -115.34,47.78l-2863.51 0c-18.02,0 -32.62,-14.61 -32.62,-32.63 0,-18.02 14.61,-32.62 32.62,-32.62l2863.51 0c27.03,0 51.5,-10.96 69.21,-28.66 17.71,-17.71 28.67,-42.18 28.67,-69.21l0 -164.62c0,-45.04 18.26,-85.82 47.78,-115.33 29.52,-29.52 70.3,-47.78 115.34,-47.78l708.91 0c31.74,0 60.47,12.87 81.27,33.67 20.8,20.8 33.67,49.53 33.67,81.27l-0.13 0 0.03 1.34c0.34,13.06 6.01,24.81 14.9,33.24 8.84,8.39 20.91,13.41 34.09,13.07l985.75 -25.89c4.71,-0.12 3.71,-0.18 5.05,-0.18l265.52 0z"/>
   <path class="fil1" d="M5384.04 300.36c18.02,0 32.63,14.61 32.63,32.62 0,18.02 -14.61,32.63 -32.63,32.63l-2476.27 0c-45.04,0 -85.81,-18.26 -115.34,-47.78 -29.52,-29.52 -47.78,-70.3 -47.78,-115.34l0 -32.62c0,-27.03 -10.95,-51.5 -28.66,-69.21 -17.7,-17.71 -42.18,-28.66 -69.2,-28.66l-1694.19 0c-18.02,0 -32.63,-14.61 -32.63,-32.62 0,-18.02 14.61,-32.63 32.63,-32.63l1694.19 0c45.04,0 85.82,18.26 115.33,47.78 29.52,29.52 47.78,70.3 47.78,115.34l0 32.62c0,27.03 10.96,51.5 28.66,69.21 17.71,17.7 42.18,28.66 69.21,28.66l2476.27 0z"/>
   <path class="fil2" d="M5384.04 429.22c18.02,0 32.63,14.61 32.63,32.62 0,18.02 -14.61,32.63 -32.63,32.63l-1892.01 0c-27.03,0 -51.5,10.95 -69.21,28.66 -17.7,17.7 -28.66,42.18 -28.66,69.2l0 517.08c0,45.04 -18.26,85.82 -47.78,115.34 -29.52,29.52 -70.3,47.78 -115.34,47.78l-3198.43 0c-18.02,0 -32.63,-14.61 -32.63,-32.63 0,-18.02 14.61,-32.62 32.63,-32.62l3198.43 0c27.03,0 51.5,-10.96 69.21,-28.66 17.7,-17.71 28.66,-42.18 28.66,-69.21l0 -517.08c0,-45.04 18.26,-85.82 47.78,-115.33 29.52,-29.52 70.3,-47.78 115.34,-47.78l1892.01 0z"/>
   <path class="fil3" d="M5384.04 576.9c18.02,0 32.63,14.61 32.63,32.62 0,18.02 -14.61,32.63 -32.63,32.63l-2705.65 0c-20.38,0 -38.82,8.26 -52.17,21.61 -13.35,13.35 -21.61,31.8 -21.61,52.17 0,38.39 -15.56,73.15 -40.72,98.3 -25.16,25.16 -59.92,40.72 -98.3,40.72l-1101.94 0c-18.02,0 -32.62,-14.61 -32.62,-32.62 0,-18.02 14.61,-32.63 32.62,-32.63l1101.94 0c20.37,0 38.82,-8.26 52.17,-21.61 13.35,-13.35 21.61,-31.8 21.61,-52.17 0,-38.38 15.56,-73.14 40.72,-98.3 25.16,-25.16 59.92,-40.72 98.3,-40.72l2705.65 0z"/>
   <path class="fil4" d="M5384.04 725.91c18.02,0 32.63,14.61 32.63,32.62 0,18.02 -14.61,32.63 -32.63,32.63l-2476.27 0c-27.03,0 -51.5,10.95 -69.21,28.66 -17.7,17.71 -28.66,42.18 -28.66,69.21l0 18.12c0,45.04 -18.26,85.82 -47.78,115.34 -29.52,29.52 -70.3,47.78 -115.33,47.78l-1694.19 0c-18.02,0 -32.63,-14.61 -32.63,-32.63 0,-18.02 14.61,-32.62 32.63,-32.62l1694.19 0c27.03,0 51.5,-10.96 69.2,-28.66 17.71,-17.71 28.66,-42.18 28.66,-69.21l0 -18.12c0,-45.04 18.26,-85.82 47.78,-115.34 29.52,-29.52 70.3,-47.78 115.34,-47.78l2476.27 0z"/>
   <path class="fil5" d="M5384.04 854.95c18.02,0 32.63,14.61 32.63,32.62 0,18.02 -14.61,32.63 -32.63,32.63l-1477.85 0c-45.04,0 -85.82,-18.26 -115.33,-47.78 -29.52,-29.52 -47.78,-70.3 -47.78,-115.34l0 -424.1c0,-27.03 -10.96,-51.5 -28.66,-69.21 -17.71,-17.7 -42.18,-28.66 -69.21,-28.66l-2170.63 0c-18.02,0 -32.63,-14.61 -32.63,-32.62 0,-18.02 14.61,-32.62 32.63,-32.62l2170.63 0c45.04,0 85.82,18.26 115.34,47.78 29.52,29.52 47.78,70.3 47.78,115.34l0 424.1c0,27.03 10.95,51.5 28.66,69.21 17.7,17.7 42.18,28.66 69.2,28.66l1477.85 0z"/>
  </g>
 </g>
</svg>
