<?xml version="1.0" encoding="UTF-8"?>
<!DOCTYPE svg PUBLIC "-//W3C//DTD SVG 1.1//EN" "http://www.w3.org/Graphics/SVG/1.1/DTD/svg11.dtd">
<!-- Creator: CorelDRAW 2019 (64-Bit) -->
<svg xmlns="http://www.w3.org/2000/svg" xml:space="preserve" width="4.02777in" height="1.77777in" version="1.1" style="shape-rendering:geometricPrecision; text-rendering:geometricPrecision; image-rendering:optimizeQuality; fill-rule:evenodd; clip-rule:evenodd"
viewBox="0 0 4027.77 1777.77"
 xmlns:xlink="http://www.w3.org/1999/xlink"
 xmlns:xodm="http://www.corel.com/coreldraw/odm/2003">
 <defs>
  <style type="text/css">
   <![CDATA[
    .fil1 {fill:#03296A;fill-rule:nonzero}
    .fil0 {fill:#99CA3C;fill-rule:nonzero}
   ]]>
  </style>
 </defs>
 <g id="Layer_x0020_1">
  <metadata id="CorelCorpID_0Corel-Layer"/>
  <g id="_880208688">
   <path class="fil0" d="M1428.43 827.72l0 342.18c0,0 0,67.63 -67.15,124.61 -45.66,38.72 -98.59,35.81 -98.59,35.81l-1102.69 0c0,0 -9.72,-1.48 -22.31,-5.7 -19.25,-3.84 -44.98,-12.58 -68.88,-32.86 -67.15,-56.94 -67.15,-124.61 -67.15,-124.61l0 -345.95c186.36,178.01 438.72,287.57 716.8,287.57 274.69,0 524.28,-106.88 709.98,-281.06l0 0z"/>
   <path class="fil1" d="M2326.37 4.92c0,0 -97.96,0 -97.96,97.95l0 1128.13c0,0 0,97.95 97.96,97.95l64.58 0c0,0 97.96,0 97.96,-97.95l0 -1128.13c0,0 0,-97.95 -97.96,-97.95l-64.58 0z"/>
   <path class="fil1" d="M1965.31 4.92c0,0 -97.96,0 -97.96,97.95l0 1128.13c0,0 0,97.95 97.96,97.95l64.57 0c0,0 97.96,0 97.96,-97.95l0 -1128.13c0,0 0,-97.95 -97.96,-97.95l-64.57 0z"/>
   <path class="fil1" d="M1603.59 4.92c0,0 -97.96,0 -97.96,97.95l0 381.99c0,0 0,97.96 97.96,97.96l64.57 0c0,0 97.96,0 97.96,-97.96l0 -381.99c0,0 0,-97.95 -97.96,-97.95l-64.57 0z"/>
   <path class="fil1" d="M2694.94 582.69c0,0 -97.96,0 -97.96,97.96l0 915.17c0,0 0,97.95 97.96,97.95l64.57 0c0,0 97.96,0 97.96,-97.95l0 -915.17c0,0 0,-97.96 -97.96,-97.96l-64.57 0z"/>
   <path class="fil1" d="M2491.19 1608.96l0 -57.57c0,-51.98 -25.05,-77.99 -75.15,-77.99l-159.98 0 0 216.92 45.32 0 0 -167.61 115.28 0c12.2,0 20.12,1.73 23.75,5.19 3.63,3.47 5.45,11.42 5.45,23.87l0 57.26c0,14.4 -1.75,23.3 -5.24,26.77 -3.5,3.47 -12.12,5.19 -25.86,5.19l-67.68 0 0 49.32 67.02 0c27.11,0 46.74,-6.27 58.88,-18.78 12.13,-12.5 18.21,-33.35 18.21,-62.57zm-303.31 81.35l45.33 0 0 -139.19c0,-28.42 -6.74,-48.76 -20.15,-61.03 -12.4,-11.13 -32.03,-16.7 -58.88,-16.7l-152.23 0 0 135.57c0,14.19 -2.33,23.08 -6.99,26.69 -5.41,4.18 -18.32,6.27 -38.72,6.27l0 48.39c31.88,0 54.39,-4.86 67.5,-14.6 15.68,-11.95 23.52,-34.19 23.52,-66.71l0 -86.3 106.82 0c13.73,0 22.28,1.13 25.64,3.34 5.42,3.35 8.16,11.71 8.16,25.08l0 139.19 0 0zm-296.72 0l45.33 0 0 -141.42c0,-26.69 -6.46,-46.16 -19.37,-58.39 -12.16,-11.41 -30.87,-17.1 -56.17,-17.1l-159.6 0 0 216.92 45.32 0 0 -167.61 114.58 0c12.17,0 19.94,1.24 23.3,3.75 4.4,3.32 6.6,10.94 6.6,22.88l0 140.97 0 0zm-437.33 0l232.04 0 0 -49.32 -26.22 0c0,-6.45 -0.13,-13.07 -0.13,-29.19l0 -61.28c0,-51.43 -24.15,-77.13 -72.43,-77.13l-133.28 0 0.19 49.31 133.42 0c11.11,0 18.37,1.73 21.74,5.19 3.36,3.47 5.04,11.13 5.04,23.03l-0.04 90.22 -160.33 -0.15 0 49.32 0 0zm-66.23 0l45.32 0 0 -138.08c0,-27.81 -6.01,-47.9 -18,-60.28 -12.02,-12.37 -31.07,-18.56 -57.15,-18.56l-109.61 0 0 49.31 109.93 0c12.43,0 20.45,1.87 24.08,5.62 3.62,3.74 5.43,12.27 5.43,25.57l0 136.41 0 0zm-206.85 -95.72l45.33 0 0 -121.2 -45.33 0 0 121.2zm-261.85 95.72l234.74 0 0 -137.67c0,-28.91 -6.2,-49.35 -18.6,-61.31 -12.39,-11.95 -32.02,-17.94 -58.87,-17.94l-157.27 0 0 216.92 0 0zm45.32 -167.61l111.85 0c13.21,0 21.89,1.81 26.04,5.39 4.14,3.61 6.22,12.17 6.22,25.73l0 87.16 -144.1 0 0 -118.28 0 0zm-147.98 167.61l-80.06 -85.35 26.61 -19.2c19.61,-14.19 29.44,-35.65 29.44,-64.33l0 -48.02 -45.32 0 0 47.94c0,7.52 -1.34,13.36 -3.98,17.52 -1.87,3.06 -6.53,7.23 -13.95,12.5l-26.56 19.61 -91.09 -97.58 -65.26 0 65.59 69.43c-29.39,15.01 -44.1,38.48 -44.1,70.41l0 77.08 45.33 0 0 -76.9c0,-9.41 3.5,-17.31 10.52,-23.68 4.14,-3.61 11.69,-7.89 22.59,-12.89l104.43 113.48 65.82 0 0 0zm-298.85 -19.41c11.75,-12.92 17.64,-34.27 17.64,-64.04l0 -50.45c0,-29.76 -5.89,-51.03 -17.64,-63.84 -11.74,-12.78 -31.44,-19.18 -59.07,-19.18l-106.13 0 0 -64.37 -46.11 0 0 113.69 152.57 0c13.71,0 22.32,1.94 25.8,5.82 3.5,3.86 5.25,13.28 5.25,28.22l0 51.05c0,14.39 -1.54,23.23 -4.66,26.55 -3.36,4.44 -12.17,6.65 -26.4,6.65l-133.95 0 0 49.32 133.64 0c27.63,0 47.33,-6.46 59.07,-19.41zm-280.63 -76.31l45.32 0 0 -121.2 -45.32 0 0 121.2zm-72.05 178.47l45.3 0 0 -216.92c0,-28.7 -5.98,-49.66 -18,-62.89 -12.02,-13.22 -31.32,-19.85 -57.92,-19.85l-134.1 0 0 49.31 134.1 0c13.18,0 21.57,2.02 25.17,6.06 3.63,4.03 5.44,13.28 5.44,27.74l0 216.55 0 0z"/>
   <path class="fil1" d="M3990.37 63.67c-41.03,-53.73 -136.07,-58.95 -136.07,-58.95l-24.7 0 0 0.41c-2.19,-0.1 -4.15,-0.41 -6.43,-0.41l-1128.12 0c0,0 -97.95,0 -97.95,97.96l0 64.57c0,0 0,97.96 97.95,97.96l1072.26 0c-0.03,0.98 -0.19,1.81 -0.19,2.83l0 799.24c0,0 0.01,0.49 0.04,1.3l-359.12 0c0,0 -97.96,0 -97.96,97.96l0 64.57c0,0 0,97.96 97.96,97.96l381.98 0 28.09 0c52.12,0.02 99.07,-1.81 142.41,-34.54 67.16,-56.97 67.16,-124.61 67.16,-124.61l0 -975.65c0,0 3.73,-76.86 -37.31,-130.58l0 0z"/>
   <path class="fil1" d="M0.09 553.66l0 -359.42c0,0 -3.73,-76.86 37.31,-130.58 41.03,-53.73 136.07,-58.95 136.07,-58.95l429.49 0 623.62 0 26.91 0c0,0 95.03,5.22 136.09,58.95 41.03,53.72 37.28,130.58 37.28,130.58l0 369.04c-156.11,224.51 -415.79,371.6 -709.97,371.6 -298.4,0 -561.49,-151.23 -716.8,-381.22l0 0z"/>
  </g>
 </g>
</svg>
