<?xml version="1.0" encoding="UTF-8"?>
<!DOCTYPE svg PUBLIC "-//W3C//DTD SVG 1.1//EN" "http://www.w3.org/Graphics/SVG/1.1/DTD/svg11.dtd">
<!-- Creator: CorelDRAW 2019 (64-Bit) -->
<svg xmlns="http://www.w3.org/2000/svg" xml:space="preserve" width="1.66666in" height="0.388882in" version="1.1" style="shape-rendering:geometricPrecision; text-rendering:geometricPrecision; image-rendering:optimizeQuality; fill-rule:evenodd; clip-rule:evenodd"
viewBox="0 0 1666.66 388.88"
 xmlns:xlink="http://www.w3.org/1999/xlink"
 xmlns:xodm="http://www.corel.com/coreldraw/odm/2003">
 <defs>
  <style type="text/css">
   <![CDATA[
    .fil0 {fill:#EF6234;fill-rule:nonzero}
    .fil1 {fill:white;fill-rule:nonzero}
   ]]>
  </style>
 </defs>
 <g id="Layer_x0020_1">
  <metadata id="CorelCorpID_0Corel-Layer"/>
  <g id="_1910909200">
   <path class="fil0" d="M127.55 365.69c-62.6,-54.57 -109.33,-120.24 -122.67,-172.43 -21.81,-85.27 31.65,-169.96 118.88,-188.36 22.66,-4.76 52.06,-3.6 73.63,2.93 37.28,11.31 76.34,43.65 92.89,76.94 37.88,76.18 12.88,155.74 -78.69,250.41 -19.04,19.69 -55.3,51.7 -58.56,51.7 -0.63,0 -12.09,-9.53 -25.47,-21.2z"/>
   <path class="fil1" d="M802.46 381.19c-30.22,-7.1 -63.17,-35.07 -77.62,-65.89 -27.02,-57.63 -8.86,-129.44 41.19,-162.86 23.07,-15.41 40.52,-19.97 71.17,-18.63 32.1,1.41 52.63,10.81 75.16,34.41 65.24,68.4 38.06,183.52 -49.77,210.85 -17.36,5.4 -42.36,6.29 -60.13,2.11l0 0zm60.12 -46.79c38.11,-19.31 54.88,-70.24 37.11,-112.77 -6.06,-14.5 -25.61,-34.33 -40.9,-41.48 -37.17,-17.38 -80.26,1.78 -98.93,43.97 -7.58,17.15 -8.04,45.36 -1.07,65.63 6.87,19.95 30.33,43.74 49,49.68 17.05,5.43 37.94,3.52 54.78,-5.03l0 0zm191.44 43.73c-88.53,-31.04 -110.8,-152.44 -39.69,-216.36 21.2,-19.08 39.55,-26.54 68.63,-27.89 30.04,-1.43 47.1,2.96 70.58,18.14 19.4,12.54 37.85,35.87 46.61,58.93 7.42,19.53 9.96,56.41 5.27,76.44 -8.7,37.17 -33.26,68.69 -66.22,84.97 -17.15,8.47 -22.93,9.94 -43.54,10.9 -19.86,0.95 -26.7,0.09 -41.63,-5.13l0 0zm56.88 -38.69c18.53,-5.49 40.28,-25.56 48.88,-45.08 4.7,-10.65 6.22,-19.25 6.35,-35.66 0.14,-19.17 -0.84,-23.66 -8.72,-39.67 -15.48,-31.45 -41.72,-47.4 -73.28,-44.54 -39.27,3.56 -67.31,35.33 -69.61,78.87 -1.86,35.03 11.87,62.76 38.91,78.62 20.67,12.11 35.43,14.04 57.48,7.47l0 0zm-755.17 -83.39l0 -122.73 21.58 0c20.91,0 21.58,0.2 21.58,6.42l0 6.4 11.46 -5.73c8.3,-4.16 17.8,-5.99 34.39,-6.64 27.95,-1.09 47.26,5.14 65.41,21.1l12.02 10.59 7.33 -7.66c4.03,-4.21 13.62,-11.07 21.3,-15.28 11.75,-6.42 17.89,-7.79 38.78,-8.71 23.16,-1.04 25.98,-0.58 42.24,7.04 20,9.35 36.41,24.98 45.39,43.21 6.09,12.35 6.26,14.8 7.01,103.69l0.77 91.04 -20.33 0 -20.33 0 0 -82.77c0,-78.83 -0.27,-83.32 -5.72,-94.57 -13.78,-28.47 -53.48,-36.76 -77.03,-16.08 -19,16.69 -19.62,20.23 -19.69,111.83l-0.06 81.59 -20.06 0 -20.06 0 -0.85 -84.29c-0.73,-72.3 -1.49,-85.43 -5.31,-92.39 -15.22,-27.6 -49.18,-36.37 -74.89,-19.35 -21.18,14.02 -21.8,17.19 -21.8,112.31l0 83.71 -21.58 0 -21.58 0 0 -122.73zm945.9 108.71c-3.48,-7.86 -27.76,-61.77 -53.97,-119.8 -26.2,-58.01 -47.65,-106.26 -47.65,-107.21 0,-0.96 10.02,-1.72 22.25,-1.72l22.25 0.02 38.82 86.38c21.35,47.51 39.6,86.86 40.56,87.46 0.96,0.59 19.34,-37.98 40.85,-85.71l39.1 -86.81 22.17 -0.78c12.19,-0.43 22.16,0.31 22.16,1.65 0,1.33 -24.03,55.7 -53.4,120.81l-53.4 118.39 -16.71 0.8 -16.72 0.8 -6.32 -14.28zm176.86 -106.69l0.7 -120.7 20.23 0 20.23 0 0.7 120.7 0.7 120.71 -21.64 0 -21.63 0 0.7 -120.71 0 0zm143.3 117.78c-22.78,-6.6 -48.4,-32.73 -54.84,-55.93 -1.68,-6.05 -2.76,-55.51 -2.77,-126.59l-0.01 -116.65 20.23 0 20.23 0 0 29.67 0 29.67 31.02 0 31.02 0 0 21.57 0 21.58 -31.15 0 -31.15 0 0.81 65.89c0.76,61.66 1.17,66.37 6.37,73.35 10.28,13.74 18.96,18.23 37.63,19.41l17.5 1.13 0 19.91 0 19.9 -18.21 -0.24c-10.01,-0.13 -22.02,-1.33 -26.67,-2.69l0 0zm-1483.2 -177.43c-12.36,-3.23 -27.29,-10.93 -32.62,-16.82 -4.27,-4.71 -4.34,-5.73 -0.72,-9.35 3.63,-3.62 5.76,-3.17 19.65,4.14 20.62,10.84 40.78,11.29 59.54,1.31 14.02,-7.46 20.23,-7.09 20.23,1.2 0,12.04 -44.43,25.15 -66.08,19.52zm-59.49 -50.09c-4.2,-6.42 -4.2,-7.4 -0.1,-13.65 8.92,-13.61 29.64,-3.77 24.29,11.54 -3.69,10.57 -17.83,11.81 -24.19,2.11zm128.81 3.33c-4.18,-4.17 -4.18,-16.31 0,-20.49 1.78,-1.78 6.39,-3.24 10.25,-3.24 3.86,0 8.47,1.46 10.25,3.24 1.78,1.78 3.23,6.37 3.23,10.23 0,3.86 -1.45,8.48 -3.23,10.26 -4.17,4.18 -16.33,4.18 -20.5,0zm1278.46 -38.83c-8.93,-6.25 -12,-16.19 -8.39,-27.11 3.48,-10.55 9.46,-14.46 21.94,-14.35 10.76,0.11 17.2,4.56 20.98,14.48 7.94,20.9 -16.24,39.8 -34.53,26.98z"/>
  </g>
 </g>
</svg>
