<svg version="1.1" id="Layer_1" xmlns="http://www.w3.org/2000/svg" x="0px" y="0px"
	 width="25.99px" height="25.99px" viewBox="0 0 25.99 25.99" enable-background="new 0 0 25.99 25.99" xml:space="preserve">
<path d="M19.497,10.56c0-4.934-4-8.934-8.937-8.934c-4.935,0-8.936,4-8.936,8.934c0,4.938,4,8.939,8.936,8.939
	C15.497,19.499,19.497,15.498,19.497,10.56L19.497,10.56z M25.762,25.763L25.762,25.763c-0.3,0.303-0.79,0.303-1.093,0l-7.214-7.213
	c-1.85,1.599-4.256,2.572-6.896,2.572C4.728,21.122,0,16.395,0,10.559C0,4.727,4.728,0,10.56,0c5.833,0,10.563,4.727,10.563,10.559
	c0,2.638-0.974,5.045-2.573,6.897l7.213,7.213C26.066,24.973,26.066,25.463,25.762,25.763z"/>
</svg>
