<?xml version="1.0" encoding="UTF-8"?>
<!DOCTYPE svg PUBLIC "-//W3C//DTD SVG 1.1//EN" "http://www.w3.org/Graphics/SVG/1.1/DTD/svg11.dtd">
<!-- Creator: CorelDRAW 2019 (64-Bit) -->
<svg xmlns="http://www.w3.org/2000/svg" xml:space="preserve" width="2.08333in" height="1.43055in" version="1.1" style="shape-rendering:geometricPrecision; text-rendering:geometricPrecision; image-rendering:optimizeQuality; fill-rule:evenodd; clip-rule:evenodd"
viewBox="0 0 2083.33 1430.55"
 xmlns:xlink="http://www.w3.org/1999/xlink"
 xmlns:xodm="http://www.corel.com/coreldraw/odm/2003">
 <defs>
  <style type="text/css">
   <![CDATA[
    .fil5 {fill:#00286E;fill-rule:nonzero}
    .fil3 {fill:#353D4D;fill-rule:nonzero}
    .fil2 {fill:#515866;fill-rule:nonzero}
    .fil6 {fill:#527DC6;fill-rule:nonzero}
    .fil1 {fill:#709C1C;fill-rule:nonzero}
    .fil0 {fill:#99CA3C;fill-rule:nonzero}
    .fil4 {fill:black;fill-rule:nonzero;fill-opacity:0.301961}
    .fil7 {fill:white;fill-rule:nonzero;fill-opacity:0.403922}
   ]]>
  </style>
 </defs>
 <g id="Layer_x0020_1">
  <metadata id="CorelCorpID_0Corel-Layer"/>
  <polygon class="fil0" points="1983.73,134.29 1269.92,134.29 662.47,134.29 460.66,258.79 460.66,1130.31 1269.92,1130.31 2083.33,1130.31 2083.33,258.79 "/>
  <polygon class="fil1" points="2083.33,258.79 1983.73,134.29 1269.92,134.29 1269.92,1130.31 2083.33,1130.31 "/>
  <polygon class="fil2" points="1556.44,9.78 1431.12,9.78 1269.92,9.78 460.66,9.78 460.66,258.79 1269.92,258.79 2083.33,258.79 2083.33,9.78 "/>
  <polygon class="fil3" points="2083.33,9.78 1556.44,9.78 1431.12,9.78 1269.92,9.78 1269.92,258.79 2083.33,258.79 "/>
  <polygon class="fil2" points="612.83,493.96 986.33,493.96 986.33,369.46 612.83,369.46 "/>
  <path class="fil4" d="M1434 854.75l41.44 -45.22c0,0 4.69,-104.58 55.72,-175.48 51.02,-70.88 72.72,-85.02 119.26,-84.76 46.52,0.28 66.76,41.09 46.13,58.82 -20.63,17.75 -39.89,24.24 -95.2,30.17 -55.33,5.95 -86.82,72.07 -88.18,94.32 -1.37,22.25 -3.86,61.44 39.74,91.88 43.6,30.43 108.01,56.29 196.19,40.72 88.18,-15.59 114.57,-23.88 145.46,-48.56 30.89,-24.68 37.29,-6.5 12.14,15.94 -25.15,22.44 -84.94,69.48 -107.75,79.28 -22.81,9.79 -16.49,9.42 1.09,6.02 17.58,-3.4 41.53,-4.85 80.43,-25.74 38.92,-20.9 66.14,-11.16 12.01,23.43 -35.52,22.69 -114.38,63.01 -222.71,62.58 -56.74,-0.22 -121.58,-11.63 -192.51,-42.59 -206.36,-90.07 -222.49,-96.56 -279.77,-152.22 -57.29,-55.67 -62.92,-66.67 -63.15,-92.69 -0.22,-26.04 50.94,-76.17 71.94,-28.76 21.01,47.41 39.88,101 95.8,135.14 55.92,34.14 120.22,62.96 131.91,57.74z"/>
  <path class="fil4" d="M1690.48 675.36c-28.85,-35.4 7.79,-73.65 53.51,-58.03 0,0 15.88,-20.34 30.28,-35.22 14.4,-14.89 37.42,6.78 44.19,11.46 6.76,4.66 30.17,21.76 50.62,41.35 20.43,19.57 12.3,26.45 -1.91,48.29 -14.21,21.83 -54.59,60.76 -78.89,91.84 -24.3,31.09 -39.98,26.77 -64.08,11.62 -24.11,-15.15 -37.92,-31.89 -48.6,-40.87 -10.69,-8.98 -22.55,-22.88 -10.5,-35.22 12.06,-12.33 25.39,-35.22 25.39,-35.22zm10.91 -9.77l31.3 -35.48c0,0 -13.4,-11.25 -27.62,0.06 -14.22,11.32 -12.44,29.22 -3.68,35.41z"/>
  <path class="fil4" d="M1376.94 756.88c0,0 -24.54,-21.03 -45.86,-89.22 -21.31,-68.18 -18.76,-55.57 -12.23,-75.87 6.55,-20.31 37.15,-30.52 45.02,-1.44 7.87,29.07 8.05,47.34 13.36,87.43 5.3,40.09 15.36,68.37 15.36,68.37 0,0 11.17,8.76 8.05,-8.33 -3.13,-17.08 -14.12,-58.34 -14.36,-99.59 -0.24,-41.25 1.74,-80.39 33.31,-117.39 31.56,-37.02 66.8,-26.95 77.61,-20.94 10.8,5.99 24.46,4.2 -21.22,74.35 -45.68,70.15 -50.61,89.56 -52.03,112.65 -1.43,23.09 -3.39,55.15 -3.39,55.15 0,0 24.5,11.06 32.84,28.04 8.34,17.02 19.06,48.25 -13.35,62.11 -32.41,13.87 -48.44,7.87 -62.08,-10.93 -13.64,-18.79 -18.01,-34.98 -11,-48.13 7.01,-13.15 9.97,-16.27 9.97,-16.27zm22.76 58.97c0,0 18.58,7.19 29.63,-4.01 11.06,-11.22 11.48,-21.87 11.14,-28.67 -0.36,-6.78 5.35,-3.61 6.09,2.66 0.75,6.27 3.68,19.22 -7.88,30.02 -11.57,10.8 -29.52,10.47 -37.53,5.8 -8.01,-4.69 -4.07,-5.91 -1.44,-5.8zm-1.41 -29.27c0,0 3.9,-0.71 0.66,-12.4 -3.24,-11.69 -12.06,-13.35 -8.01,0.26 4.07,13.6 5.62,12.45 7.35,12.13zm24.67 -5.05c0,0 3.91,-0.71 0.66,-12.4 -3.24,-11.69 -12.06,-13.35 -8,0.25 4.06,13.61 5.62,12.45 7.33,12.15z"/>
  <path class="fil5" d="M456.5 1434.65c-252.11,0 -456.5,-204.39 -456.5,-456.51 0,-252.11 204.39,-456.5 456.5,-456.5 252.12,0 456.51,204.39 456.51,456.5 0,252.12 -204.39,456.51 -456.51,456.51z"/>
  <path class="fil6" d="M456.5 1434.65c-252.11,0 -456.5,-204.39 -456.5,-456.51 0,-252.11 204.39,-456.5 456.5,-456.5l0 913.02z"/>
  <polygon class="fil7" points="513.57,773.23 513.57,939.23 679.57,939.23 679.57,1049.9 513.56,1049.9 513.57,1215.91 402.9,1215.91 402.89,1049.9 236.9,1049.9 236.9,939.23 402.9,939.23 402.9,773.23 "/>
 </g>
</svg>
