<?xml version="1.0" encoding="UTF-8"?>
<!DOCTYPE svg PUBLIC "-//W3C//DTD SVG 1.1//EN" "http://www.w3.org/Graphics/SVG/1.1/DTD/svg11.dtd">
<!-- Creator: CorelDRAW 2019 (64-Bit) -->
<svg xmlns="http://www.w3.org/2000/svg" xml:space="preserve" width="1.34722in" height="1.51388in" version="1.1" style="shape-rendering:geometricPrecision; text-rendering:geometricPrecision; image-rendering:optimizeQuality; fill-rule:evenodd; clip-rule:evenodd"
viewBox="0 0 1347.22 1513.88"
 xmlns:xlink="http://www.w3.org/1999/xlink"
 xmlns:xodm="http://www.corel.com/coreldraw/odm/2003">
 <defs>
  <style type="text/css">
   <![CDATA[
    .fil4 {fill:#03296A;fill-rule:nonzero}
    .fil1 {fill:#293939;fill-rule:nonzero}
    .fil0 {fill:#384949;fill-rule:nonzero}
    .fil7 {fill:#3E5959;fill-rule:nonzero}
    .fil2 {fill:#527DC6;fill-rule:nonzero}
    .fil9 {fill:#709C1C;fill-rule:nonzero}
    .fil8 {fill:#99CA3C;fill-rule:nonzero}
    .fil5 {fill:#F6A96C;fill-rule:nonzero}
    .fil6 {fill:#FED2A4;fill-rule:nonzero}
    .fil3 {fill:#FFBD86;fill-rule:nonzero}
   ]]>
  </style>
 </defs>
 <g id="Layer_x0020_1">
  <metadata id="CorelCorpID_0Corel-Layer"/>
  <g id="_2592287760">
   <path class="fil0" d="M665.29 6.94c-302.99,0 -557.4,234.81 -580.5,531.63l54.49 88.6 37.32 0 0 -44.31c0,-128.34 50.32,-250.38 141.69,-343.67l0.72 -0.74 0.74 -0.72c94.12,-91.7 216.83,-142.19 345.54,-142.19 269.14,0 488.11,218.61 488.11,487.31l0 1.18 -1.15 43.13 31.94 0 61.02 -88.6c-23.11,-296.82 -276.94,-531.63 -579.92,-531.63z"/>
   <path class="fil1" d="M665 6.94l0 88.6c269.28,0 488.34,218.61 488.34,487.31l0 1.18 -1.15 43.13 31.97 0 61.05 -88.6c-23.12,-296.82 -277.07,-531.63 -580.21,-531.63z"/>
   <polygon class="fil0" points="1136.66,667.19 667.24,676.08 193.37,684.96 134.81,1358.55 667.24,1363 1208.53,1367.44 "/>
   <polygon class="fil1" points="1208.53,1367.44 668.33,1363 668.33,676.08 1136.8,667.19 "/>
   <path class="fil2" d="M85.96 540.47c-0.89,14.13 -1.18,29.17 -1.18,44.18l0 309.28 270.1 0 0 -353.46 -268.92 0z"/>
   <path class="fil3" d="M945.1 1253.79c-51.49,105 -158.92,180.34 -278.76,180.34 -111.86,0 -213.95,-66.44 -268.11,-161.66l47.95 -113.9 7.09 -0.89 35.52 -137.04 47.93 23.13c39.95,18.69 85.23,28.48 129.62,28.48 44.38,0 89.66,-9.8 129.61,-28.48l47.93 -23.13 35.52 137.04 7.1 0.89 58.59 95.22z"/>
   <path class="fil4" d="M1244.82 540.47l-269.71 0 0 353.69 65.61 0 13.63 39.8 107.13 -39.8 83.34 0c0,0 0.87,-339.54 0,-353.69z"/>
   <path class="fil5" d="M945.1 1253.79c-51.74,105 -159.69,180.34 -280.1,180.34l0 -361.87c44.6,0 90.1,-9.8 130.24,-28.48l48.17 -23.13 35.68 137.04 7.13 0.89 58.89 95.22z"/>
   <path class="fil6" d="M1064.55 628.84l0.6 132.97c0,112.58 -48.48,219.83 -131.84,295.19 -73.61,67.36 -165.84,103.7 -265.17,103.7l-0.87 0c-13.31,0 -25.72,-0.89 -39.03,-1.78 -202.18,-19.49 -360.05,-200.34 -360.05,-412.19l0 -117.89 85.15 -88.65 26.6 0c104.64,0 201.31,-60.28 247.41,-152.47l39.92 -80.67 39.9 80.67c46.11,92.19 142.78,152.47 247.43,152.47l45.22 0 64.73 88.65z"/>
   <path class="fil3" d="M1064.56 628.84l0.59 132.97c0,112.58 -48.35,219.83 -131.48,295.19 -73.42,67.36 -165.39,103.7 -264.44,103.7l-0.89 0 0 -853.65 39.81 80.67c45.98,92.19 142.39,152.47 246.74,152.47l45.11 0 64.56 88.65z"/>
   <path class="fil0" d="M666.96 183.68c-105.46,0 -205.59,41.68 -282.69,117.08 -74.44,76.28 -116.09,176.51 -116.09,282.06l0 44.35 111.65 0c114.32,0 218.89,-51.45 287.12,-139.26 68.24,87.81 172.8,139.26 287.12,139.26l109.89 0 1.18 -44.35c0,-219.97 -178.42,-399.15 -398.19,-399.15z"/>
   <path class="fil1" d="M1065.15 582.82l-1.18 44.35 -110.43 0c-114.88,0 -219.96,-51.45 -288.54,-139.26l0 -304.23c220.85,0 400.15,179.18 400.15,399.15z"/>
   <path class="fil7" d="M84.79 893.94c17.8,52.23 67.66,90.03 125.52,90.03l324.65 0 0 -90.03 -450.17 0z"/>
   <path class="fil8" d="M1333.46 1474.69c-2.67,-71.85 -32.57,-146.97 -81.41,-201.98 -46.19,-49.68 -113.68,-82.51 -191.82,-93.17l-173.18 -22.18 -11.54 33.72c-31.1,87.84 -114.57,146.39 -208.7,146.39 -93.26,0 -177.62,-58.55 -208.7,-146.39l-11.55 -33.72 -174.07 22.18c-77.26,10.66 -144.76,43.49 -190.05,93.17 -48.84,53.23 -77.25,128.34 -81.7,201.09l-2.67 47.03 1337.16 0 -1.78 -46.14z"/>
   <path class="fil9" d="M1335.24 1520.83l-666.91 0 0 -183.36c93.93,0 177.22,-58.55 208.22,-146.39l11.52 -33.72 172.79 22.18c77.97,10.66 145.31,43.49 191.39,93.17 48.74,55.01 78.56,130.12 81.22,201.98l1.78 46.14z"/>
  </g>
 </g>
</svg>
