<?xml version="1.0" encoding="UTF-8"?>
<!DOCTYPE svg PUBLIC "-//W3C//DTD SVG 1.1//EN" "http://www.w3.org/Graphics/SVG/1.1/DTD/svg11.dtd">
<!-- Creator: CorelDRAW 2019 (64-Bit) -->
<svg xmlns="http://www.w3.org/2000/svg" xml:space="preserve" width="2.09722in" height="1.44444in" version="1.1" style="shape-rendering:geometricPrecision; text-rendering:geometricPrecision; image-rendering:optimizeQuality; fill-rule:evenodd; clip-rule:evenodd"
viewBox="0 0 2097.22 1444.44"
 xmlns:xlink="http://www.w3.org/1999/xlink"
 xmlns:xodm="http://www.corel.com/coreldraw/odm/2003">
 <defs>
  <style type="text/css">
   <![CDATA[
    .str0 {stroke:black;stroke-width:13.89;stroke-miterlimit:10}
    .fil7 {fill:none;fill-rule:nonzero}
    .fil3 {fill:black;fill-rule:nonzero}
    .fil2 {fill:#00286E;fill-rule:nonzero}
    .fil5 {fill:#527DC6;fill-rule:nonzero}
    .fil11 {fill:#709C1C;fill-rule:nonzero}
    .fil12 {fill:#8ACD00;fill-rule:nonzero}
    .fil4 {fill:#CDCDCD;fill-rule:nonzero}
    .fil0 {fill:#E5E5E5;fill-rule:nonzero}
    .fil8 {fill:black;fill-rule:nonzero;fill-opacity:0.101961}
    .fil1 {fill:#00286E;fill-rule:nonzero;fill-opacity:0.309804}
    .fil13 {fill:white;fill-rule:nonzero;fill-opacity:0.341176}
    .fil10 {fill:white;fill-rule:nonzero;fill-opacity:0.447059}
    .fil9 {fill:white;fill-rule:nonzero;fill-opacity:0.498039}
    .fil6 {fill:white;fill-rule:nonzero;fill-opacity:0.501961}
   ]]>
  </style>
 </defs>
 <g id="Layer_x0020_1">
  <metadata id="CorelCorpID_0Corel-Layer"/>
  <g id="_884914000">
   <polygon class="fil0" points="458.33,1444.44 2097.22,1444.44 2097.22,319.44 458.33,319.44 "/>
   <path class="fil1" d="M1923.61 1125c57.53,0 104.17,46.64 104.17,104.17 0,57.53 -46.64,104.17 -104.17,104.17 -26.68,0 -51.03,-10.03 -69.46,-26.54 21.32,-19.06 34.74,-46.78 34.74,-77.63 0,-30.85 -13.4,-58.56 -34.71,-77.63 18.42,-16.51 42.75,-26.54 69.43,-26.54zm-138.89 0c26.68,0 51.03,10.03 69.46,26.54 -21.32,19.06 -34.74,46.78 -34.74,77.63 0,30.85 13.4,58.56 34.71,77.63 -18.42,16.51 -42.75,26.54 -69.43,26.54 -57.53,0 -104.17,-46.64 -104.17,-104.17 0,-57.53 46.64,-104.17 104.17,-104.17z"/>
   <path class="fil2" d="M1854.18 1151.54c21.31,19.07 34.71,46.78 34.71,77.63 0,30.85 -13.4,58.56 -34.71,77.63 -21.32,-19.06 -34.74,-46.78 -34.74,-77.63 0,-30.46 13.07,-57.86 33.92,-76.9l0.82 -0.72z"/>
   <polygon class="fil3" points="458.33,638.89 2097.22,638.89 2097.22,402.78 458.33,402.78 "/>
   <polygon class="fil4" points="458.33,1444.44 1041.67,1444.44 1041.67,319.44 458.33,319.44 "/>
   <polygon class="fil3" points="458.33,638.89 1041.67,638.89 1041.67,402.78 458.33,402.78 "/>
   <polygon class="fil5" points="-0,1125 1638.89,1125 1638.89,0 -0,0 "/>
   <g>
    <path class="fil6" d="M180.72 826.67l0 76.1 14.02 0c3.35,0 5.75,0.63 7.17,1.93 1.42,1.3 2.13,2.95 2.13,5.04 0,2.05 -0.71,3.7 -2.13,5 -1.42,1.3 -3.82,1.93 -7.17,1.93l-41.97 0c-3.35,0 -5.75,-0.63 -7.17,-1.93 -1.42,-1.3 -2.13,-2.95 -2.13,-5.04 0,-2.05 0.71,-3.7 2.13,-5 1.42,-1.3 3.82,-1.93 7.17,-1.93l14.02 0 0 -57.99 -12.4 3.27c-2.01,0.51 -3.5,0.79 -4.49,0.79 -1.77,0 -3.27,-0.71 -4.57,-2.09 -1.3,-1.38 -1.93,-3.11 -1.93,-5.16 0,-1.85 0.47,-3.31 1.42,-4.37 0.94,-1.06 2.95,-1.97 5.98,-2.8l29.92 -7.76z"/>
    <path class="fil7 str0" d="M180.72 826.67l0 76.1 14.02 0c3.35,0 5.75,0.63 7.17,1.93 1.42,1.3 2.13,2.95 2.13,5.04 0,2.05 -0.71,3.7 -2.13,5 -1.42,1.3 -3.82,1.93 -7.17,1.93l-41.97 0c-3.35,0 -5.75,-0.63 -7.17,-1.93 -1.42,-1.3 -2.13,-2.95 -2.13,-5.04 0,-2.05 0.71,-3.7 2.13,-5 1.42,-1.3 3.82,-1.93 7.17,-1.93l14.02 0 0 -57.99 -12.4 3.27c-2.01,0.51 -3.5,0.79 -4.49,0.79 -1.77,0 -3.27,-0.71 -4.57,-2.09 -1.3,-1.38 -1.93,-3.11 -1.93,-5.16 0,-1.85 0.47,-3.31 1.42,-4.37 0.94,-1.06 2.95,-1.97 5.98,-2.8l29.92 -7.76z"/>
   </g>
   <g>
    <path class="fil6" d="M244.01 902.77l30.43 0c1.69,-1.38 3.27,-2.05 4.76,-2.05 2.13,0 3.82,0.71 5.04,2.09 1.22,1.42 1.85,3.82 1.85,7.2l0 6.65 -63.35 0 0 -14.72c25.08,-20.67 40.2,-33.94 45.39,-39.88 2.64,-3.03 3.94,-5.87 3.94,-8.58 0,-3.43 -1.5,-6.42 -4.45,-9.02 -2.95,-2.6 -6.93,-3.9 -11.85,-3.9 -4.96,0 -9.09,1.46 -12.4,4.37 -1.69,1.54 -3.07,3.82 -4.13,6.85 -0.63,1.89 -1.5,3.23 -2.6,4.06 -1.1,0.83 -2.48,1.22 -4.09,1.22 -1.93,0 -3.54,-0.67 -4.92,-2.05 -1.38,-1.34 -2.09,-2.91 -2.09,-4.72 0,-2.72 1.26,-6.14 3.78,-10.2 2.48,-4.06 6.14,-7.32 10.98,-9.76 4.8,-2.44 10.04,-3.66 15.71,-3.66 8.78,0 15.94,2.64 21.57,7.95 5.59,5.31 8.39,11.77 8.39,19.33 0,3.82 -0.79,7.4 -2.4,10.67 -1.61,3.27 -5.47,7.8 -11.57,13.58 -4.8,4.57 -14.13,12.76 -27.99,24.57z"/>
    <path class="fil7 str0" d="M244.01 902.77l30.43 0c1.69,-1.38 3.27,-2.05 4.76,-2.05 2.13,0 3.82,0.71 5.04,2.09 1.22,1.42 1.85,3.82 1.85,7.2l0 6.65 -63.35 0 0 -14.72c25.08,-20.67 40.2,-33.94 45.39,-39.88 2.64,-3.03 3.94,-5.87 3.94,-8.58 0,-3.43 -1.5,-6.42 -4.45,-9.02 -2.95,-2.6 -6.93,-3.9 -11.85,-3.9 -4.96,0 -9.09,1.46 -12.4,4.37 -1.69,1.54 -3.07,3.82 -4.13,6.85 -0.63,1.89 -1.5,3.23 -2.6,4.06 -1.1,0.83 -2.48,1.22 -4.09,1.22 -1.93,0 -3.54,-0.67 -4.92,-2.05 -1.38,-1.34 -2.09,-2.91 -2.09,-4.72 0,-2.72 1.26,-6.14 3.78,-10.2 2.48,-4.06 6.14,-7.32 10.98,-9.76 4.8,-2.44 10.04,-3.66 15.71,-3.66 8.78,0 15.94,2.64 21.57,7.95 5.59,5.31 8.39,11.77 8.39,19.33 0,3.82 -0.79,7.4 -2.4,10.67 -1.61,3.27 -5.47,7.8 -11.57,13.58 -4.8,4.57 -14.13,12.76 -27.99,24.57z"/>
   </g>
   <g>
    <path class="fil6" d="M360.17 870.21c4.13,2.8 7.2,6.06 9.25,9.72 2.01,3.7 3.03,7.83 3.03,12.4 0,4.92 -1.34,9.45 -4.02,13.62 -2.72,4.21 -6.61,7.36 -11.69,9.53 -5.12,2.17 -11.81,3.23 -20.08,3.23 -10.75,0 -18.86,-1.69 -24.29,-5.04 -3.03,-1.89 -4.53,-4.13 -4.53,-6.77 0,-2.01 0.67,-3.7 2.01,-5.08 1.3,-1.38 2.91,-2.05 4.84,-2.05 1.3,0 2.64,0.47 4.06,1.38 2.01,1.34 3.86,2.24 5.63,2.68 2.72,0.67 6.42,0.98 11.18,0.98 8.07,0 13.94,-1.06 17.56,-3.19 3.62,-2.09 5.43,-5.08 5.43,-8.9 0,-2.87 -1.06,-5.63 -3.15,-8.27 -2.09,-2.64 -4.92,-4.65 -8.46,-6.1 -2.01,-0.83 -5.43,-1.38 -10.28,-1.69 -2.32,-0.12 -4.09,-0.87 -5.31,-2.17 -1.26,-1.3 -1.89,-2.87 -1.89,-4.76 0,-2.01 0.67,-3.66 2.05,-5.04 1.34,-1.34 3.07,-2.01 5.16,-2.01 4.61,0 7.05,-0.04 7.36,-0.08 1.81,-0.2 3.62,-0.79 5.43,-1.77 1.81,-0.98 3.27,-2.36 4.37,-4.09 1.1,-1.73 1.65,-3.54 1.65,-5.39 0,-2.95 -1.3,-5.47 -3.9,-7.64 -2.6,-2.13 -6.5,-3.19 -11.69,-3.19 -6.69,0 -11.81,1.93 -15.31,5.83 -1.06,1.14 -1.89,1.85 -2.52,2.17 -0.94,0.51 -2.01,0.75 -3.19,0.75 -1.89,0 -3.5,-0.67 -4.84,-2.05 -1.38,-1.38 -2.05,-3.03 -2.05,-5 0,-3.11 2.09,-6.14 6.22,-9.09 6.06,-4.29 13.62,-6.46 22.72,-6.46 8.58,0 15.47,2.44 20.71,7.32 5.2,4.88 7.8,10.75 7.8,17.64 0,3.58 -0.79,6.89 -2.32,10 -1.54,3.11 -3.86,5.94 -6.93,8.58z"/>
    <path class="fil7 str0" d="M360.17 870.21c4.13,2.8 7.2,6.06 9.25,9.72 2.01,3.7 3.03,7.83 3.03,12.4 0,4.92 -1.34,9.45 -4.02,13.62 -2.72,4.21 -6.61,7.36 -11.69,9.53 -5.12,2.17 -11.81,3.23 -20.08,3.23 -10.75,0 -18.86,-1.69 -24.29,-5.04 -3.03,-1.89 -4.53,-4.13 -4.53,-6.77 0,-2.01 0.67,-3.7 2.01,-5.08 1.3,-1.38 2.91,-2.05 4.84,-2.05 1.3,0 2.64,0.47 4.06,1.38 2.01,1.34 3.86,2.24 5.63,2.68 2.72,0.67 6.42,0.98 11.18,0.98 8.07,0 13.94,-1.06 17.56,-3.19 3.62,-2.09 5.43,-5.08 5.43,-8.9 0,-2.87 -1.06,-5.63 -3.15,-8.27 -2.09,-2.64 -4.92,-4.65 -8.46,-6.1 -2.01,-0.83 -5.43,-1.38 -10.28,-1.69 -2.32,-0.12 -4.09,-0.87 -5.31,-2.17 -1.26,-1.3 -1.89,-2.87 -1.89,-4.76 0,-2.01 0.67,-3.66 2.05,-5.04 1.34,-1.34 3.07,-2.01 5.16,-2.01 4.61,0 7.05,-0.04 7.36,-0.08 1.81,-0.2 3.62,-0.79 5.43,-1.77 1.81,-0.98 3.27,-2.36 4.37,-4.09 1.1,-1.73 1.65,-3.54 1.65,-5.39 0,-2.95 -1.3,-5.47 -3.9,-7.64 -2.6,-2.13 -6.5,-3.19 -11.69,-3.19 -6.69,0 -11.81,1.93 -15.31,5.83 -1.06,1.14 -1.89,1.85 -2.52,2.17 -0.94,0.51 -2.01,0.75 -3.19,0.75 -1.89,0 -3.5,-0.67 -4.84,-2.05 -1.38,-1.38 -2.05,-3.03 -2.05,-5 0,-3.11 2.09,-6.14 6.22,-9.09 6.06,-4.29 13.62,-6.46 22.72,-6.46 8.58,0 15.47,2.44 20.71,7.32 5.2,4.88 7.8,10.75 7.8,17.64 0,3.58 -0.79,6.89 -2.32,10 -1.54,3.11 -3.86,5.94 -6.93,8.58z"/>
   </g>
   <g>
    <path class="fil6" d="M444.08 828.91l0 54.41c2.95,0 5.12,0.63 6.54,1.93 1.38,1.3 2.09,2.95 2.09,4.96 0,2.05 -0.71,3.74 -2.13,5.04 -1.46,1.3 -3.62,1.97 -6.5,1.97l0 5.55c2.95,0 5.12,0.67 6.54,1.97 1.38,1.3 2.09,2.99 2.09,5 0,2.05 -0.71,3.7 -2.13,5 -1.46,1.3 -3.82,1.93 -7.17,1.93l-18.66 0c-3.35,0 -5.71,-0.63 -7.13,-1.93 -1.46,-1.3 -2.17,-2.95 -2.17,-5.04 0,-2.05 0.71,-3.7 2.17,-5 1.42,-1.3 3.78,-1.93 7.13,-1.93l5.43 0 0 -5.55 -37.76 0 0 -11.61 33.27 -56.69 18.39 0zm-13.9 54.41l0 -34.21 -20.16 34.21 20.16 0z"/>
    <path class="fil7 str0" d="M444.08 828.91l0 54.41c2.95,0 5.12,0.63 6.54,1.93 1.38,1.3 2.09,2.95 2.09,4.96 0,2.05 -0.71,3.74 -2.13,5.04 -1.46,1.3 -3.62,1.97 -6.5,1.97l0 5.55c2.95,0 5.12,0.67 6.54,1.97 1.38,1.3 2.09,2.99 2.09,5 0,2.05 -0.71,3.7 -2.13,5 -1.46,1.3 -3.82,1.93 -7.17,1.93l-18.66 0c-3.35,0 -5.71,-0.63 -7.13,-1.93 -1.46,-1.3 -2.17,-2.95 -2.17,-5.04 0,-2.05 0.71,-3.7 2.17,-5 1.42,-1.3 3.78,-1.93 7.13,-1.93l5.43 0 0 -5.55 -37.76 0 0 -11.61 33.27 -56.69 18.39 0zm-13.9 54.41l0 -34.21 -20.16 34.21 20.16 0z"/>
   </g>
   <polygon class="fil8" points="1055.56,1125 1638.89,1125 1638.89,0 1055.56,0 "/>
   <polygon class="fil9" points="97.22,250 430.56,250 430.56,83.33 97.22,83.33 "/>
   <polygon class="fil10" points="1236.11,250 1569.44,250 1569.44,83.33 1236.11,83.33 "/>
   <path class="fil11" d="M1055.56 1319.44c-253.12,0 -458.33,-205.2 -458.33,-458.33 0,-253.13 205.21,-458.33 458.33,-458.33 253.13,0 458.33,205.21 458.33,458.33 0,253.13 -205.21,458.33 -458.33,458.33z"/>
   <path class="fil12" d="M1055.56 1319.44c-253.12,0 -458.33,-205.2 -458.33,-458.33 0,-253.13 205.21,-458.33 458.33,-458.33l0 916.67z"/>
   <path class="fil13" d="M1222.15 1055.56c37.08,0 55.63,-18.85 55.63,-56.54l0 0 0 -276.79 -79.63 0 0 268.4 -172.64 0 0 -153.15 -80.24 0 0 218.08 276.87 0zm-322.17 0l0 -268.41 172.33 0 0 159.06 79.63 0 0 -167.44c0,-17.82 -4.76,-32 -14.28,-42.56 -9.13,-9.32 -20.78,-13.99 -34.96,-13.99l0 0 -283.26 0 0 333.33 80.54 0z"/>
  </g>
 </g>
</svg>
