<?xml version="1.0" encoding="UTF-8"?>
<!DOCTYPE svg PUBLIC "-//W3C//DTD SVG 1.1//EN" "http://www.w3.org/Graphics/SVG/1.1/DTD/svg11.dtd">
<!-- Creator: CorelDRAW 2019 (64-Bit) -->
<svg xmlns="http://www.w3.org/2000/svg" xml:space="preserve" width="10.7361in" height="7.59722in" version="1.1" style="shape-rendering:geometricPrecision; text-rendering:geometricPrecision; image-rendering:optimizeQuality; fill-rule:evenodd; clip-rule:evenodd"
viewBox="0 0 10736.1 7597.22"
 xmlns:xlink="http://www.w3.org/1999/xlink"
 xmlns:xodm="http://www.corel.com/coreldraw/odm/2003">
 <defs>
  <style type="text/css">
   <![CDATA[
    .fil4 {fill:#00AAAE;fill-rule:nonzero;fill-opacity:0.101961}
    .fil3 {fill:#03296A;fill-rule:nonzero;fill-opacity:0.101961}
    .fil1 {fill:#9AC963;fill-rule:nonzero;fill-opacity:0.101961}
    .fil0 {fill:#DE0A84;fill-rule:nonzero;fill-opacity:0.101961}
    .fil2 {fill:#FFCB05;fill-rule:nonzero;fill-opacity:0.101961}
   ]]>
  </style>
 </defs>
 <g id="Layer_x0020_1">
  <metadata id="CorelCorpID_0Corel-Layer"/>
  <g id="_2042823184">
   <path class="fil0" d="M4734.37 649.28c7242.61,1244.11 7.46,4861.69 -2528.58,6875.59l932.37 74.59c2416.69,-1730.48 9510.12,-6079.02 1596.21,-6950.19z"/>
   <path class="fil1" d="M3382.63 5894.58c4875.56,-2923.34 5161.57,-4281.42 1342.61,-4922.89 3595.2,865.24 3068.4,2055.02 -2178,4922.89l835.4 0z"/>
   <path class="fil0" d="M576.02 6332.98c7589.46,-3397.54 6463.16,-4661.83 4456.71,-4963.92 1909.48,510.94 2431.61,1774.55 -5027.31,4963.92l570.61 0z"/>
   <path class="fil2" d="M6151.56 589.61c3237.17,790.65 3722,1834.9 2245.13,4012.9l581.8 0c1655.89,-2274.97 455,-3774.22 -4557.4,-4326.18l1730.47 313.28z"/>
   <path class="fil3" d="M6793.03 425.51c4020.36,842.86 4902.31,2803.69 1411.98,5811.97l481.21 -1.85c2970.04,-2677.37 3559.3,-5459.55 -4175.62,-6227.81l2282.43 417.7z"/>
   <path class="fil4" d="M7985.07 4503.56l-217.03 12.07c-423.32,466.32 -1218.68,1127.39 -2382.72,1981.44l277.67 0c906.53,-674.36 1680.94,-1338.9 2322.08,-1993.52z"/>
  </g>
 </g>
</svg>
