<?xml version="1.0" encoding="UTF-8"?>
<!DOCTYPE svg PUBLIC "-//W3C//DTD SVG 1.1//EN" "http://www.w3.org/Graphics/SVG/1.1/DTD/svg11.dtd">
<!-- Creator: CorelDRAW 2019 (64-Bit) -->
<svg xmlns="http://www.w3.org/2000/svg" xml:space="preserve" width="0.59722in" height="0.527772in" version="1.1" style="shape-rendering:geometricPrecision; text-rendering:geometricPrecision; image-rendering:optimizeQuality; fill-rule:evenodd; clip-rule:evenodd"
viewBox="0 0 597.22 527.77"
 xmlns:xlink="http://www.w3.org/1999/xlink"
 xmlns:xodm="http://www.corel.com/coreldraw/odm/2003">
 <defs>
  <style type="text/css">
   <![CDATA[
    .fil1 {fill:#03296A;fill-rule:nonzero}
    .fil0 {fill:#9A74FF;fill-rule:nonzero}
   ]]>
  </style>
 </defs>
 <g id="Layer_x0020_1">
  <metadata id="CorelCorpID_0Corel-Layer"/>
  <g id="_1896115680">
   <path class="fil0" d="M569.22 66.87c-14.96,-19.94 -39.2,-19.94 -54.15,0l-180.6 240.81 -93.29 -124.38c-14.96,-19.94 -39.19,-19.94 -54.15,0 -14.94,19.93 -14.94,52.27 0,72.21l120.81 161.06c14.94,19.93 39.13,18.65 54.08,-1.3 1.64,-2.18 3.47,-4.28 4.44,-5.7l202.86 -270.49c14.96,-19.94 14.96,-52.26 0,-72.21z"/>
   <polygon class="fil1" points="514.81,231.15 514.81,519.84 2.89,519.84 2.89,7.93 514.81,7.93 514.81,53.09 484.64,88.8 484.64,38.08 33.06,38.08 33.06,489.67 484.64,489.67 484.64,268.08 "/>
  </g>
 </g>
</svg>
