<?xml version="1.0" encoding="UTF-8"?>
<!DOCTYPE svg PUBLIC "-//W3C//DTD SVG 1.1//EN" "http://www.w3.org/Graphics/SVG/1.1/DTD/svg11.dtd">
<!-- Creator: CorelDRAW 2019 (64-Bit) -->
<svg xmlns="http://www.w3.org/2000/svg" xml:space="preserve" width="1.52777in" height="0.499992in" version="1.1" style="shape-rendering:geometricPrecision; text-rendering:geometricPrecision; image-rendering:optimizeQuality; fill-rule:evenodd; clip-rule:evenodd"
viewBox="0 0 1527.77 499.99"
 xmlns:xlink="http://www.w3.org/1999/xlink"
 xmlns:xodm="http://www.corel.com/coreldraw/odm/2003">
 <defs>
  <style type="text/css">
   <![CDATA[
    .fil0 {fill:#365999;fill-rule:nonzero}
   ]]>
  </style>
 </defs>
 <g id="Layer_x0020_1">
  <metadata id="CorelCorpID_0Corel-Layer"/>
  <g id="_1303026896">
   <path class="fil0" d="M405.04 157.11c0,-67.22 99.82,-124.41 239.17,-145.61 -43.58,16.68 -101.68,40.35 -130.89,58.32 -50.29,30.97 -118.25,86.38 -51.79,136.56 35.31,26.67 86.99,60.13 127.69,85.64 -109.87,-26.41 -184.18,-76.92 -184.18,-134.91z"/>
   <path class="fil0" d="M796.8 3.46c184.24,6.53 325.93,72.71 325.93,153.65 0,60.76 -81.59,113.35 -200.22,138.54 -40.33,-14.94 -109.37,-40.59 -179.03,-66.79l202.06 0 -159.17 -68.61 148.36 0c0,0 -170.86,-73.58 -203.35,-87.81 -32.47,-14.24 3.89,-38.09 15.67,-44.56 5.15,-2.83 28.54,-13.3 49.75,-24.43z"/>
   <path class="fil0" d="M734.37 3.22c9.72,-0.35 19.58,-0.51 29.51,-0.51 7.36,0 14.68,0.09 21.96,0.28 -27.03,12.59 -54.76,25.94 -65.67,32.65 -24,14.78 -55.74,43.17 -25.54,69.03 15.5,13.29 36.25,27.82 52.58,38.68 -44.24,-19.11 -82.76,-35.78 -98.64,-42.74 -47.43,-20.78 5.67,-55.63 22.88,-65.06 7.53,-4.14 34.71,-18.02 62.92,-32.33z"/>
   <path class="fil0" d="M660.94 9.16c19.36,-2.5 39.43,-4.31 60.01,-5.36 -36.08,16.15 -73.07,33.43 -88.74,43.08 -35.06,21.58 -80.97,59.89 -34.64,94.87 31.54,23.82 81.15,55.57 109.61,73.42 -77.75,-29.37 -150.11,-57.19 -176.96,-68.97 -68.06,-29.8 14.71,-79.08 39.39,-92.62 14.82,-8.14 58.62,-29.02 91.32,-44.42z"/>
   <path class="fil0" d="M33.63 414.65l-31.26 0 0 82.63 56.32 0 0 -52.33c0,-22.04 -6.2,-30.29 -25.06,-30.29zm4.14 66.81l-14.49 0 0 -50.99 6.07 0c6.07,0 8.42,3.17 8.42,13.92l0 37.07zm53.83 -66.81l-22.01 0 0 48.61 22.01 0 0 -48.61zm28.25 0l-18.72 0 0 16.38 9.78 0c10.6,0 12.94,2.47 12.94,13.64l0 22.6c0,11.15 -2.35,13.64 -12.94,13.64l-9.78 0 0 16.37 18.72 0c17.35,0 26.01,-6.06 26.01,-28.36l0 -25.9c0,-22.31 -8.67,-28.36 -26.01,-28.36zm55.1 82.63l22.03 0 0 -50c0,-23.4 -4.28,-32.63 -27.13,-32.63l-17.35 0 0 16.38 11.57 0c8.54,0 10.88,4.4 10.88,17.07l0 49.18zm78.9 -82.63l-50.39 0 0 16.38 20.67 0 0 66.25 22.02 0 0 -66.25 7.71 0 0 -16.38zm51.24 66.25l0 -66.25 -44.33 0 0 16.38 22.32 0 0 49.87 -22.32 0 0 16.37 51.36 0 0 -16.37 -7.03 0zm78.39 -66.25l-33.88 0 0 16.38 6.2 0 0 49.32 -9.5 0 0 16.93 30.42 0 0 -66.25 3.72 0c6.9,0 8.42,2.89 8.42,11.85l0 54.4 22.03 0 0 -50.68c0,-24.93 -7.17,-31.94 -27.4,-31.94zm61.41 0l-22.01 0 0 82.63 22.01 0 0 -82.63zm43.94 0l-30.98 0 0 82.63 22.03 0 0 -66.25 3.86 0c7.17,0 9.24,2.61 9.24,14.18l0 52.07 22.03 0 0 -51.37c0,-24.37 -7.43,-31.25 -26.17,-31.25zm59.09 0l-22.03 0 0 48.61 22.03 0 0 -48.61zm68.72 46.54l0 -46.54 -30 0 0 16.92 8.54 0 0.12 32.25c0,12.94 -2.06,17.08 -10.59,17.08l-2.35 0 -3.72 -66.25 -20.93 0 4.82 82.63 21.48 0c22.44,0 32.63,-8.26 32.63,-36.08zm52.89 19.71l0 -66.25 -44.33 0 0 16.38 22.32 0 0 49.87 -22.32 0 0 16.37 51.36 0 0 -16.37 -7.03 0zm69.97 -66.25l-55.76 0 0 16.38 33.75 0 0 66.25 22.02 0 0 -82.63zm-55.63 82.63l22.01 0 0 -51.51 -22.01 0 0 51.51zm90.61 -82.63l-22.01 0 0 82.63 22.01 0 0 -82.63zm98.49 0l-55.76 0 0 16.38 33.74 0 0 66.25 22.03 0 0 -82.63zm-55.64 82.63l22.02 0 0 -51.51 -22.02 0 0 51.51zm86.92 0l22.03 0 0 -50c0,-23.4 -4.28,-32.63 -27.12,-32.63l-17.36 0 0 16.38 11.58 0c8.53,0 10.87,4.4 10.87,17.07l0 49.18zm56.04 -82.63l-22.03 0 0 82.63 22.03 0 0 -82.63zm54.26 66.25l0 -66.25 -44.33 0 0 16.38 22.31 0 0 49.87 -22.31 0 0 16.37 51.36 0 0 -16.37 -7.03 0zm46.15 -66.25l-30.99 0 0 82.63 22.02 0 0 -66.25 3.86 0c7.18,0 9.25,2.61 9.25,14.18l0 52.07 22.01 0 0 -51.37c0,-24.37 -7.43,-31.25 -26.15,-31.25zm70.79 0l-33.88 0 0 16.38 6.2 0 0 49.32 -9.5 0 0 16.93 30.42 0 0 -66.25 3.72 0c6.9,0 8.42,2.89 8.42,11.85l0 54.4 22.03 0 0 -50.68c0,-24.93 -7.17,-31.94 -27.4,-31.94zm94.19 0l-55.76 0 0 16.38 33.75 0 0 66.25 22.01 0 0 -82.63zm-55.63 82.63l22.02 0 0 -51.51 -22.02 0 0 51.51zm145.57 -82.63l-50.39 0 0 16.38 20.65 0 0 66.25 22.03 0 0 -66.25 7.71 0 0 -16.38zm29.22 82.63l22.02 0 0 -50c0,-23.4 -4.26,-32.63 -27.11,-32.63l-17.36 0 0 16.38 11.57 0c8.54,0 10.89,4.4 10.89,17.07l0 49.18zm111.41 -82.63l-21.33 0 0 44.07c0,16.25 -2.35,22.18 -17.92,22.18l-15.69 0 -3.71 -66.25 -21.35 0 4.82 82.63 40.19 0c26.6,0 34.99,-11.01 34.99,-36.9l0 -45.72zm-49.43 50l20.24 0 0 -50 -20.24 0 0 50zm91.04 -50l-32.92 0 0 16.38 7.43 0 -7.01 66.25 21.35 0 6.61 -66.81 2.2 0c6.48,0 8.26,2.89 8.26,12.13l0 38.31 -8.81 0 0 16.37 30.42 0 0 -48.35c0,-25.33 -6.06,-34.28 -27.53,-34.28z"/>
  </g>
 </g>
</svg>
