<?xml version="1.0" encoding="UTF-8"?>
<!DOCTYPE svg PUBLIC "-//W3C//DTD SVG 1.1//EN" "http://www.w3.org/Graphics/SVG/1.1/DTD/svg11.dtd">
<!-- Creator: CorelDRAW 2019 (64-Bit) -->
<svg xmlns="http://www.w3.org/2000/svg" xml:space="preserve" width="3.23611in" height="2.41666in" version="1.1" style="shape-rendering:geometricPrecision; text-rendering:geometricPrecision; image-rendering:optimizeQuality; fill-rule:evenodd; clip-rule:evenodd"
viewBox="0 0 3236.11 2416.66"
 xmlns:xlink="http://www.w3.org/1999/xlink"
 xmlns:xodm="http://www.corel.com/coreldraw/odm/2003">
 <defs>
  <style type="text/css">
   <![CDATA[
    .fil4 {fill:#00AAAE;fill-rule:nonzero}
    .fil0 {fill:#03296A;fill-rule:nonzero}
    .fil2 {fill:#9AC963;fill-rule:nonzero}
    .fil1 {fill:#DE0A84;fill-rule:nonzero}
    .fil3 {fill:#FFCB05;fill-rule:nonzero}
   ]]>
  </style>
 </defs>
 <g id="Layer_x0020_1">
  <metadata id="CorelCorpID_0Corel-Layer"/>
  <g id="_1294433696">
   <path class="fil0" d="M549.66 1718.59l0 -120.79c0,-97.78 -22.37,-168.86 -67.1,-213.29 -44.75,-44.4 -114.41,-66.63 -208.98,-66.63 -94.6,0 -164.4,22.38 -209.46,67.1 -45.06,44.75 -67.59,115.7 -67.59,212.82l0 120.79c0,75.42 11.5,132.93 34.5,172.56 23.02,39.63 54.79,69.35 95.39,89.15 40.58,19.81 105.93,44.42 196.04,73.81l175.43 58.48 35.47 -93.94 -93.94 -30.68c-22.39,-7.03 -49.22,-13.74 -80.53,-20.14 55.6,-8.29 101.28,-32.74 137.08,-73.32 35.78,-40.58 53.68,-99.24 53.68,-175.92zm-133.25 6.71c0,62.64 -11.67,107.53 -34.99,134.7 -23.33,27.17 -59.29,40.74 -107.85,40.74 -49.22,0 -85.65,-13.57 -109.29,-40.74 -23.64,-27.17 -35.46,-72.06 -35.46,-134.7l0 -133.25c0,-61.99 11.82,-106.41 35.46,-133.25 23.64,-26.85 60.07,-40.26 109.29,-40.26 48.56,0 84.52,13.42 107.85,40.26 23.32,26.85 34.99,71.26 34.99,133.25l0 133.25zm548.57 -257.86l0 312.5c0,84.36 -36.11,126.54 -108.32,126.54 -33.87,0 -59.6,-10.07 -77.17,-30.19 -17.58,-20.14 -26.36,-49.68 -26.36,-88.68l0 -320.17 -126.54 0 0 322.08c0,70.32 15.82,123.04 47.46,158.18 31.63,35.15 81.31,52.72 149.06,52.72 61.36,0 108.64,-17.25 141.87,-51.76l0 46.02 126.54 0 0 -527.24 -126.54 0zm359.74 -191.74l-126.54 0 0 121.75 126.54 0 0 -121.75zm0 191.74l-126.54 0 0 527.24 126.54 0 0 -527.24zm310.85 532.98c70.93,0 126.38,-17.08 166.32,-51.28 39.93,-34.18 62.46,-83.56 67.58,-148.11l-126.54 0c-8.96,71.58 -44.74,107.36 -107.36,107.36 -37.72,0 -65.53,-14.21 -83.4,-42.65 -17.9,-28.43 -26.85,-73.01 -26.85,-133.74 0,-61.98 8.94,-107.19 26.85,-135.64 17.87,-28.43 45.68,-42.67 83.4,-42.67 62.63,0 98.41,35.47 107.36,106.41l126.54 0c-5.13,-64.54 -27.81,-113.75 -68.07,-147.64 -40.26,-33.86 -95.54,-50.8 -165.83,-50.8 -157.86,0 -236.79,90.11 -236.79,270.33 0,178.96 78.93,268.42 236.79,268.42zm751.81 -5.75l-216.65 -290.46 198.44 -236.78 -139 0 -160.1 201.3 0 -393.04 -126.54 0 0 718.97 126.54 0 0 -251.17 178.31 251.17 139 0zm215.93 -533c-155.94,0 -233.9,90.11 -233.9,270.33 0,178.96 77.96,268.42 233.9,268.42 67.74,0 120.63,-15.48 158.65,-46.48 38.02,-31 61.2,-73.33 69.5,-127.03l-126.54 0c-5.75,24.3 -16.78,43.94 -33.07,58.96 -16.29,15.03 -39.15,22.53 -68.54,22.53 -33.87,0 -59.59,-11.17 -77.17,-33.56 -17.58,-22.36 -27.97,-58.14 -31.15,-107.36l344.14 0c3.19,-103.53 -15.02,-180.37 -54.64,-230.56 -39.64,-50.15 -100.03,-75.25 -181.18,-75.25zm0 92.03c33.86,0 59.92,11.03 78.13,33.07 18.22,22.06 28.6,57.7 31.15,106.91l-217.6 0c3.18,-49.21 13.57,-84.85 31.15,-106.91 17.57,-22.04 43.29,-33.07 77.17,-33.07zm309.88 440.97l126.54 0 0 -246.36c0,-60.07 14.06,-102.1 42.18,-126.07 28.11,-23.96 69.33,-35.94 123.67,-35.94l20.13 0 0 -118.86 -20.13 0c-49.22,0 -86.93,9.9 -113.12,29.7 -26.21,19.82 -45.38,47.61 -57.52,83.41l-1.92 0 0 -113.11 -119.83 0 0 527.24z"/>
   <path class="fil0" d="M557.38 2155.3l-11.55 43.1 28.5 0 -39.72 148.26 -47.5 0 -11.55 43.09 98.11 0 52.04 -194.23 36.24 0c35.36,0 35.34,28.94 25.99,63.86l-34.94 130.37 56.57 0 35.65 -133.03c15.99,-59.67 13.04,-101.43 -50.61,-101.43l-137.22 0zm399.21 0l-27.42 102.32c-15.16,56.57 -28.21,66.52 -69.13,80.65l13 -182.97 -57.02 0 -9.35 198.22 -67.52 18.56 -0.79 40.89c0,0 89.45,-25.41 119.74,-35.36 80.2,-26.29 110.63,-59.89 128.1,-125.07l26.05 -97.24 -55.68 0zm124.18 172.81l-7.24 61.65 49.06 0 31.22 -234.46 -92.37 0 -11.55 43.1 46.19 0c0,0 -5.17,41.54 -8.74,64.74 -7.1,44.64 -30.11,76.9 -71.87,76.9l-23.86 0 -13.32 49.72 13.03 0c37.35,0 69.72,-18.57 87.67,-61.65l1.78 0zm76.62 61.65l55.68 0 33.87 -126.4 -55.68 0 -33.87 126.4zm61.06 -234.46l-11.55 43.1 137.89 0 -51.28 191.36 56.13 0 62.82 -234.46 -194.02 0zm259.02 120.6l86.96 -33.06c4.44,-7.44 6.95,-14.35 7.53,-20.68 0.58,-6.33 -1.44,-11.79 -6.07,-16.36l-92.62 42.94c-2.4,0.96 -4.7,2.69 -6.91,5.19 -2.21,2.5 -4.24,5.2 -6.08,8.07 -1.83,2.87 -3.36,5.69 -4.57,8.46 -1.22,2.76 -2.04,4.91 -2.43,6.39 -0.4,1.49 -0.75,3.57 -1.03,6.22 -0.3,2.67 -0.3,5.37 -0.03,8.15 0.27,2.76 0.88,5.38 1.82,7.82 0.94,2.44 2.39,4.2 4.34,5.26l69.98 41.53c7.36,-4.06 12.52,-9.59 15.48,-16.61 3.11,-7.24 4.1,-14.11 2.96,-20.59l-69.33 -32.74zm189.48 -120.6l-11.55 43.1 28.5 0 -39.73 148.26 -47.5 0 -11.55 43.09 98.11 0 52.05 -194.23 36.24 0c35.36,0 35.34,28.94 25.98,63.86l-34.93 130.37 56.57 0 35.65 -133.03c15.98,-59.67 13.04,-101.43 -50.61,-101.43l-137.22 0zm197.66 191.36l-11.55 43.09 53.93 0c38,0 62.59,-19.22 73.72,-60.76l46.54 -173.69 -87.94 0 -11.55 43.1 33.15 0 -31.32 116.89c-7.1,26.51 -9.96,31.37 -29.85,31.37l-35.14 0zm244.91 43.09l100.54 0 32.27 -120.43c20.93,-76.46 8.01,-114.03 -62.7,-114.03l-113.58 0 -11.55 43.1 38.01 0 -98.34 191.36 54.79 0 94.92 -194.23 15.03 0c39.78,0 42.56,26.73 32.49,64.3l-23.27 86.83 -47.07 0 -11.55 43.09zm196.35 0l58.78 0c0,0 3.31,-74.25 5.55,-121.32 1.02,-22.76 1.87,-54.8 28.94,-70.04l40.43 0 11.55 -43.1 -144.51 0 -11.55 43.1 60.76 0c-29.75,11.26 -42.28,41.54 -43.9,76.46 -1.87,35.79 -6.04,114.9 -6.04,114.9zm125.85 0l55.68 0 33.87 -126.4 -55.68 0 -33.87 126.4zm61.06 -234.46l-11.55 43.1 137.89 0 -51.28 191.36 56.13 0 62.82 -234.46 -194.02 0z"/>
   <path class="fil0" d="M1255.59 1433.75c54.67,0 98.99,-44.32 98.99,-98.98 0,-54.67 -44.32,-99 -98.99,-99 -54.67,0 -98.98,44.33 -98.98,99 0,54.67 44.32,98.98 98.98,98.98z"/>
   <path class="fil1" d="M1864.69 117.93c1289.87,221.57 1.33,865.83 -450.32,1224.52l166.04 13.28c430.4,-308.19 1693.71,-1082.64 284.28,-1237.79z"/>
   <path class="fil2" d="M1623.95 1052.09c868.31,-520.63 919.25,-762.5 239.11,-876.74 640.28,154.1 546.46,365.98 -387.89,876.74l148.78 0z"/>
   <path class="fil1" d="M1124.11 1130.17c1351.64,-605.09 1151.06,-830.24 793.71,-884.04 340.07,90.99 433.06,316.04 -895.33,884.04l101.62 0z"/>
   <path class="fil3" d="M2117.08 107.3c576.53,140.82 662.88,326.79 399.85,714.68l103.61 0c294.9,-405.17 81.03,-672.17 -811.64,-770.47l308.18 55.79z"/>
   <path class="fil0" d="M2231.32 78.08c716,150.11 873.07,499.32 251.47,1035.07l85.69 -0.32c528.94,-476.83 633.89,-972.32 -743.65,-1109.14l406.48 74.39z"/>
   <path class="fil4" d="M2443.62 804.35l-38.65 2.15c-75.39,83.06 -217.04,200.78 -424.35,352.87l49.44 0c161.46,-120.08 299.37,-238.44 413.56,-355.03z"/>
  </g>
 </g>
</svg>
