<?xml version="1.0" encoding="UTF-8"?>
<!DOCTYPE svg PUBLIC "-//W3C//DTD SVG 1.1//EN" "http://www.w3.org/Graphics/SVG/1.1/DTD/svg11.dtd">
<!-- Creator: CorelDRAW 2019 (64-Bit) -->
<svg xmlns="http://www.w3.org/2000/svg" xml:space="preserve" width="1.30555in" height="0.583331in" version="1.1" style="shape-rendering:geometricPrecision; text-rendering:geometricPrecision; image-rendering:optimizeQuality; fill-rule:evenodd; clip-rule:evenodd"
viewBox="0 0 1305.55 583.33"
 xmlns:xlink="http://www.w3.org/1999/xlink"
 xmlns:xodm="http://www.corel.com/coreldraw/odm/2003">
 <defs>
  <style type="text/css">
   <![CDATA[
    .fil1 {fill:#03296A;fill-rule:nonzero}
    .fil0 {fill:#9ACA3C;fill-rule:nonzero}
   ]]>
  </style>
 </defs>
 <g id="Layer_x0020_1">
  <metadata id="CorelCorpID_0Corel-Layer"/>
  <g id="_1488785584">
   <path class="fil0" d="M463.3 271.88l0 110.74c0,0 0,21.89 -21.74,40.32 -14.78,12.54 -31.9,11.59 -31.9,11.59l-356.86 0c0,0 -3.14,-0.48 -7.22,-1.85 -6.24,-1.25 -14.56,-4.07 -22.29,-10.63 -21.74,-18.44 -21.74,-40.33 -21.74,-40.33l0 -111.96c60.32,57.61 141.98,93.07 231.98,93.07 88.89,0 169.67,-34.58 229.76,-90.96z"/>
   <path class="fil1" d="M753.9 5.6c0,0 -31.69,0 -31.69,31.7l0 365.09c0,0 0,31.7 31.69,31.7l20.9 0c0,0 31.71,0 31.71,-31.7l0 -365.09c0,0 0,-31.7 -31.71,-31.7l-20.9 0z"/>
   <path class="fil1" d="M637.05 5.6c0,0 -31.71,0 -31.71,31.7l0 365.09c0,0 0,31.7 31.71,31.7l20.9 0c0,0 31.7,0 31.7,-31.7l0 -365.09c0,0 0,-31.7 -31.7,-31.7l-20.9 0z"/>
   <path class="fil1" d="M519.99 5.6c0,0 -31.71,0 -31.71,31.7l0 123.63c0,0 0,31.69 31.71,31.69l20.89 0c0,0 31.71,0 31.71,-31.69l0 -123.63c0,0 0,-31.7 -31.71,-31.7l-20.89 0z"/>
   <path class="fil1" d="M873.18 192.57c0,0 -31.69,0 -31.69,31.71l0 296.18c0,0 0,31.69 31.69,31.69l20.91 0c0,0 31.7,0 31.7,-31.69l0 -296.18c0,0 0,-31.71 -31.7,-31.71l-20.91 0z"/>
   <path class="fil1" d="M807.24 524.7l0 -18.63c0,-16.83 -8.11,-25.25 -24.32,-25.25l-51.78 0 0 70.19 14.67 0 0 -54.22 37.31 0c3.94,0 6.51,0.56 7.69,1.67 1.18,1.13 1.76,3.69 1.76,7.72l0 18.53c0,4.67 -0.57,7.56 -1.71,8.67 -1.13,1.12 -3.92,1.68 -8.36,1.68l-21.89 0 0 15.96 21.68 0c8.78,0 15.12,-2.02 19.06,-6.07 3.92,-4.04 5.89,-10.79 5.89,-20.25zm-98.17 26.32l14.68 0 0 -45.04c0,-9.18 -2.17,-15.78 -6.53,-19.75 -4.02,-3.6 -10.36,-5.4 -19.06,-5.4l-49.26 0 0 43.87c0,4.6 -0.75,7.48 -2.25,8.65 -1.76,1.33 -5.94,2.01 -12.54,2.01l0 15.65c10.32,0 17.59,-1.57 21.85,-4.71 5.07,-3.87 7.61,-11.07 7.61,-21.6l0 -27.91 34.57 0c4.44,0 7.21,0.36 8.29,1.08 1.76,1.07 2.64,3.78 2.64,8.09l0 45.04zm-96.03 0l14.68 0 0 -45.75c0,-8.64 -2.1,-14.94 -6.28,-18.91 -3.91,-3.68 -9.98,-5.53 -18.18,-5.53l-51.65 0 0 70.19 14.68 0 0 -54.22 37.08 0c3.93,0 6.44,0.39 7.54,1.2 1.43,1.07 2.13,3.54 2.13,7.41l0 45.61zm-141.53 0l75.1 0 0 -15.96 -8.49 0c0,-2.09 -0.03,-4.22 -0.03,-9.44l0 -19.82c0,-16.65 -7.82,-24.97 -23.46,-24.97l-43.14 0 0.07 15.97 43.18 0c3.6,0 5.94,0.56 7.04,1.67 1.08,1.13 1.62,3.61 1.62,7.44l-0.01 29.21 -51.89 -0.06 0 15.96zm-21.43 0l14.67 0 0 -44.68c0,-9 -1.93,-15.5 -5.83,-19.5 -3.89,-4.01 -10.04,-6.01 -18.48,-6.01l-35.47 0 0 15.97 35.57 0c4.01,0 6.61,0.59 7.79,1.82 1.18,1.19 1.76,3.96 1.76,8.26l0 44.14zm-66.94 -30.97l14.67 0 0 -39.22 -14.67 0 0 39.22zm-84.75 30.97l75.97 0 0 -44.54c0,-9.36 -2.01,-15.97 -6.01,-19.85 -4.02,-3.87 -10.36,-5.8 -19.06,-5.8l-50.91 0 0 70.19zm14.67 -54.22l36.21 0c4.26,0 7.08,0.58 8.41,1.73 1.35,1.17 2.02,3.93 2.02,8.32l0 28.21 -46.64 0 0 -38.26zm-47.88 54.22l-25.91 -27.61 8.59 -6.22c6.37,-4.59 9.54,-11.53 9.54,-20.82l0 -15.54 -14.68 0 0 15.51c0,2.43 -0.42,4.33 -1.28,5.67 -0.61,1 -2.09,2.35 -4.51,4.06l-8.6 6.35 -29.48 -31.58 -21.11 0 21.22 22.47c-9.52,4.86 -14.26,12.44 -14.26,22.79l0 24.93 14.67 0 0 -24.87c0,-3.06 1.13,-5.6 3.41,-7.67 1.35,-1.17 3.78,-2.56 7.32,-4.18l33.79 36.72 21.3 0zm-96.71 -6.26c3.8,-4.18 5.7,-11.1 5.7,-20.74l0 -16.32c0,-9.63 -1.9,-16.53 -5.7,-20.67 -3.82,-4.14 -10.18,-6.2 -19.14,-6.2l-34.33 0 0 -20.83 -14.93 0 0 36.81 49.37 0c4.44,0 7.22,0.62 8.36,1.87 1.13,1.25 1.7,4.29 1.7,9.13l0 16.53c0,4.65 -0.52,7.53 -1.52,8.59 -1.08,1.42 -3.94,2.14 -8.54,2.14l-43.35 0 0 15.96 43.24 0c8.96,0 15.32,-2.08 19.14,-6.26zm-90.85 -24.71l14.67 0 0 -39.22 -14.67 0 0 39.22zm-23.3 57.76l14.67 0 0 -70.21c0,-9.28 -1.94,-16.07 -5.83,-20.35 -3.87,-4.29 -10.12,-6.43 -18.74,-6.43l-43.4 0 0 15.97 43.4 0c4.25,0 6.97,0.65 8.14,1.94 1.18,1.31 1.76,4.31 1.76,8.99l0 70.08z"/>
   <path class="fil1" d="M1292.42 24.6c-13.28,-17.39 -44.04,-19.08 -44.04,-19.08l-7.98 0 0 0.14c-0.71,-0.04 -1.35,-0.14 -2.08,-0.14l-365.1 0c0,0 -31.69,0 -31.69,31.71l0 20.9c0,0 0,31.7 31.69,31.7l347.02 0c0,0.32 -0.06,0.58 -0.06,0.91l0 258.65c0,0 0,0.15 0.02,0.43l-116.22 0c0,0 -31.71,0 -31.71,31.69l0 20.9c0,0 0,31.7 31.71,31.7l123.61 0 9.09 0c16.88,0 32.07,-0.6 46.1,-11.18 21.74,-18.43 21.74,-40.33 21.74,-40.33l0 -315.75c0,0 1.2,-24.88 -12.08,-42.25z"/>
   <path class="fil1" d="M1.05 183.18l0 -116.32c0,0 -1.2,-24.87 12.09,-42.25 13.26,-17.39 44.03,-19.08 44.03,-19.08l139 0 201.82 0 8.71 0c0,0 30.75,1.69 44.04,19.08 13.28,17.37 12.07,42.25 12.07,42.25l0 119.44c-50.53,72.65 -134.57,120.24 -229.76,120.24 -96.58,0 -181.72,-48.93 -231.99,-123.36z"/>
  </g>
 </g>
</svg>
